<svg width="24" height="24" viewBox="0 0 24 24" xmlns="http://www.w3.org/2000/svg">
<path d="M11 3C11 2.46957 11.2108 1.96101 11.5859 1.58594C11.961 1.21087 12.4695 1.00001 13 1C13.5522 1 14 1.44772 14 2C14 2.55228 13.5522 3 13 3V4.67578C13.6057 4.38846 14.2526 4.18831 14.9218 4.08398C16.257 3.87591 17.6239 4.05874 18.8574 4.61035C20.0909 5.162 21.1389 6.0585 21.874 7.19238C22.6083 8.32516 22.9992 9.64619 23 10.9961L22.997 11.3633C22.926 15.1596 21.5067 18.8117 18.9863 21.6621L18.9824 21.666C18.3855 22.3338 17.582 22.7828 16.7002 22.9395C15.8182 23.0961 14.9085 22.9517 14.1181 22.5303C13.4663 22.1825 12.7388 22.001 12 22.001C11.2611 22.001 10.5337 22.1825 9.8818 22.5303C9.09138 22.9517 8.18169 23.0961 7.29977 22.9395C6.41795 22.7828 5.61443 22.3338 5.01754 21.666L5.01168 21.6602V21.6592C2.42011 18.713 0.993236 14.9219 0.999963 10.998C1.00037 9.64747 1.39128 8.3257 2.12594 7.19238C2.86098 6.0585 3.90899 5.162 5.14254 4.61035C6.37608 4.05873 7.74294 3.87591 9.07809 4.08398C9.74734 4.18831 10.3943 4.38847 11 4.67578V3ZM18.041 6.43555C17.1601 6.04166 16.1839 5.91106 15.2304 6.05957C14.2768 6.20819 13.3864 6.63003 12.667 7.27344C12.2874 7.61296 11.7126 7.61296 11.333 7.27344C10.6136 6.63005 9.72312 6.20819 8.76949 6.05957C7.81602 5.91106 6.83987 6.04165 5.95895 6.43555C5.07789 6.82956 4.32968 7.47043 3.80465 8.28027C3.27962 9.09018 2.99999 10.0348 2.99996 11V11.002C2.99413 14.4362 4.24178 17.7545 6.50875 20.334L6.62496 20.4531C6.90793 20.721 7.26436 20.9012 7.65035 20.9697C8.09113 21.0479 8.54534 20.9762 8.94039 20.7656L9.29879 20.5889C10.1452 20.2021 11.0662 20.001 12 20.001C13.0672 20.001 14.118 20.2633 15.0595 20.7656L15.2099 20.8379C15.5678 20.9919 15.9646 21.0383 16.3505 20.9697C16.7912 20.8913 17.1928 20.6676 17.4912 20.334C19.7657 17.7599 21.0145 14.439 21 11.0039V11C20.9999 10.0348 20.7203 9.09018 20.1953 8.28027C19.6702 7.47044 18.922 6.82955 18.041 6.43555Z" fill="currentColor"/>
</svg>
