<svg width="16" height="16" viewBox="0 0 16 16" fill="none" xmlns="http://www.w3.org/2000/svg">
  <g clip-path="url(#clip0_73_1314)">
    <path
      d="M8.57745 13.6665C8.76155 13.348 9.16893 13.2387 9.48761 13.4224C9.80646 13.6065 9.91586 14.0146 9.73175 14.3335C9.55623 14.6374 9.30426 14.8904 9.00031 15.0659C8.69637 15.2414 8.35125 15.3334 8.00031 15.3335C7.6494 15.3335 7.30424 15.2413 7.00031 15.0659C6.69628 14.8904 6.44343 14.6375 6.26788 14.3335C6.08382 14.0147 6.19319 13.6065 6.51202 13.4224C6.8307 13.2385 7.238 13.3481 7.42218 13.6665C7.48063 13.7677 7.56512 13.8521 7.66632 13.9106C7.76766 13.9692 7.88329 14.0005 8.00031 14.0005C8.11721 14.0004 8.23207 13.9691 8.33331 13.9106C8.43462 13.8521 8.51895 13.7678 8.57745 13.6665ZM11.3333 5.3335C11.3333 4.44944 10.9819 3.6012 10.3568 2.97607C9.73174 2.35123 8.88409 2.00057 8.00031 2.00049C7.11633 2.00049 6.26799 2.35105 5.64288 2.97607C5.01776 3.6012 4.66632 4.44944 4.66632 5.3335C4.66632 6.90291 4.42028 7.99866 4.02179 8.84229C3.62822 9.67544 3.10607 10.2136 2.6673 10.6665H13.3333C12.8936 10.2133 12.3713 9.67502 11.9778 8.84229C11.5793 7.99853 11.3333 6.90271 11.3333 5.3335ZM0.666321 5.3335C0.666321 3.63639 1.25949 2.17115 2.12238 0.94873C2.33475 0.6483 2.75043 0.576457 3.05109 0.788574C3.35189 1.0009 3.42357 1.41746 3.21124 1.71826C2.47422 2.76245 2.00031 3.96404 2.00031 5.3335C2.00031 5.70169 1.7015 6.00049 1.33331 6.00049C0.965123 6.00049 0.666321 5.70169 0.666321 5.3335ZM14.0003 5.3335C14.0003 3.96397 13.5255 2.76249 12.7884 1.71826C12.5761 1.41749 12.6478 1.00092 12.9485 0.788574C13.2493 0.576263 13.6659 0.647995 13.8782 0.94873C14.7411 2.17115 15.3333 3.63639 15.3333 5.3335C15.3333 5.70169 15.0345 6.00049 14.6663 6.00049C14.2983 6.00031 14.0003 5.70158 14.0003 5.3335ZM12.6663 5.3335C12.6663 6.7634 12.8909 7.65275 13.1839 8.27295C13.4041 8.73902 13.6749 9.08151 13.9837 9.4165L14.305 9.75439L14.3196 9.76904C14.4935 9.96017 14.6083 10.1986 14.6497 10.4536C14.691 10.7085 14.6575 10.9704 14.553 11.2065C14.4485 11.4427 14.2773 11.6438 14.0609 11.7847C13.8444 11.9255 13.5915 12.0005 13.3333 12.0005H2.66632C2.40801 12.0003 2.15514 11.9248 1.93878 11.7837C1.72238 11.6425 1.55182 11.441 1.44757 11.2046C1.34335 10.9682 1.30921 10.7066 1.35089 10.4517C1.39262 10.1966 1.50779 9.95897 1.68195 9.76807C1.68642 9.76317 1.691 9.75818 1.69562 9.75342C2.13862 9.29606 2.52301 8.89468 2.81671 8.27295C3.10963 7.65277 3.33331 6.76317 3.33331 5.3335C3.33331 4.09582 3.82533 2.90886 4.7005 2.03369C5.57565 1.15862 6.76271 0.666504 8.00031 0.666504C9.23786 0.66659 10.425 1.1586 11.3001 2.03369C12.1752 2.90885 12.6663 4.0959 12.6663 5.3335Z"
      fill="#178FFF"
    />
  </g>
  <defs>
    <clipPath id="clip0_73_1314">
      <rect width="16" height="16" fill="white" />
    </clipPath>
  </defs>
</svg>
