<svg width="24" height="24" viewBox="0 0 24 24" fill="none" xmlns="http://www.w3.org/2000/svg">
<path d="M16.0005 5.50001C16.0005 4.73229 15.6459 4.07652 15.23 3.57423C15.1526 3.48086 15.0743 3.39576 14.9995 3.31837C14.9249 3.39563 14.8472 3.48106 14.77 3.57423C14.3541 4.07652 14.0005 4.7323 14.0005 5.50001C14.0005 6.26773 14.3541 6.92351 14.77 7.42579C14.8238 7.4908 14.8781 7.55206 14.9311 7.60939C15.018 7.50557 15.1097 7.3936 15.1997 7.27345C15.6793 6.63321 16.0005 5.98392 16.0005 5.50001ZM11.8227 8.65431C11.363 8.65395 10.9078 8.74434 10.4829 8.91993C10.0581 9.09553 9.67149 9.35294 9.34617 9.67775C8.87768 10.1465 8.3578 10.8703 7.81688 11.7695L9.3452 13.291C9.73658 13.6805 9.73839 14.3136 9.3491 14.7051C8.95963 15.0965 8.32654 15.0983 7.93504 14.709L6.81102 13.5908C6.27646 14.632 5.76197 15.7437 5.29539 16.8115C4.78399 17.982 4.33448 19.0916 3.98485 19.9854C4.87963 19.6358 5.99077 19.187 7.16258 18.6758C8.55997 18.0661 10.032 17.3742 11.3227 16.6641C12.3891 16.0774 13.2807 15.5018 13.9057 14.9795L12.1733 13.2471C11.7828 12.8566 11.7828 12.2235 12.1733 11.833C12.5639 11.4427 13.1969 11.4425 13.5874 11.833L15.1079 13.3535C15.2474 12.9707 15.3204 12.5665 15.3208 12.1582L15.3169 11.9854C15.2974 11.5845 15.2088 11.1891 15.0552 10.8174C14.9795 10.6343 14.8877 10.4589 14.7827 10.292C14.6643 10.1703 14.5619 10.0572 14.478 9.95802C14.3979 9.86326 14.3342 9.77943 14.2847 9.71388C14.2193 9.66443 14.1356 9.60107 14.0415 9.5215C13.9351 9.43148 13.8121 9.32117 13.6802 9.19142C13.5155 9.08805 13.343 8.99681 13.1626 8.92189C12.738 8.74563 12.2825 8.65467 11.8227 8.65431ZM18.5005 8.00001C18.0275 8.00001 17.3788 8.31977 16.7329 8.80177C16.6116 8.89233 16.4971 8.98291 16.3921 9.07032C16.4489 9.12281 16.5094 9.17624 16.5737 9.2295C17.076 9.6455 17.7327 10 18.5005 10C19.2681 9.99987 19.924 9.64541 20.4263 9.2295C20.5191 9.15262 20.6031 9.07441 20.6802 9.00001C20.6031 8.92562 20.5191 8.84741 20.4263 8.77052C19.924 8.35461 19.2681 8.00016 18.5005 8.00001ZM21.1675 9.5547L21.1684 9.55568L21.1694 9.55763H21.1704C21.1701 9.55719 21.1687 9.55649 21.1675 9.5547ZM22.8325 8.4463C23.0556 8.78176 23.0556 9.21827 22.8325 9.55372L22.0005 9.00001L22.8325 8.4463ZM18.0005 5.50001C18.0005 5.68536 17.9811 5.86851 17.9507 6.04884C18.1313 6.01791 18.3152 6.00001 18.5005 6.00001C19.9024 6.00016 20.9965 6.64559 21.7016 7.2295C22.0587 7.52521 22.3343 7.82018 22.522 8.042C22.6162 8.15341 22.6899 8.24858 22.7417 8.31837C22.7675 8.35311 22.7881 8.38173 22.8032 8.40333C22.8108 8.41415 22.8169 8.42351 22.8218 8.43068C22.8241 8.43417 22.8269 8.43688 22.8286 8.43947L22.8315 8.44532H22.8325C22.8327 8.44565 22.8328 8.44649 22.0005 9.00001L22.8325 9.5547H22.8315L22.8286 9.56056C22.8269 9.56314 22.8241 9.56585 22.8218 9.56935C22.8169 9.57651 22.8108 9.58587 22.8032 9.59669C22.7881 9.6183 22.7675 9.64692 22.7417 9.68165C22.6899 9.75145 22.6162 9.84661 22.522 9.95802C22.3343 10.1798 22.0587 10.4748 21.7016 10.7705C20.9965 11.3544 19.9024 11.9999 18.5005 12C18.0745 12 17.6769 11.9392 17.31 11.8399C17.3161 11.9461 17.3209 12.0525 17.3208 12.1592C17.3202 12.8815 17.1768 13.5966 16.8999 14.2637C16.7295 14.6741 16.5099 15.0609 16.2475 15.417C16.1994 15.5218 16.1336 15.6207 16.0473 15.707C16.0128 15.7415 15.975 15.7714 15.937 15.7998C15.8626 15.8839 15.7872 15.9673 15.7075 16.0469C14.8884 16.866 13.6315 17.6761 12.2866 18.416C10.9224 19.1665 9.38996 19.886 7.96238 20.5088C6.53257 21.1326 5.19473 21.6656 4.21531 22.042C3.72539 22.2303 3.32381 22.3797 3.04442 22.4824C2.90496 22.5337 2.79591 22.5736 2.72117 22.6006C2.68378 22.6141 2.65486 22.6248 2.63524 22.6318C2.62549 22.6353 2.61794 22.6378 2.61278 22.6397C2.61035 22.6405 2.6083 22.6411 2.60692 22.6416L2.60496 22.6426H2.60399C2.24063 22.7713 1.83559 22.6798 1.56297 22.4072C1.29029 22.1345 1.1986 21.7287 1.32762 21.3652V21.3643L1.3286 21.3633C1.32907 21.3619 1.32968 21.3599 1.33055 21.3574C1.33237 21.3523 1.33493 21.3446 1.33836 21.335C1.34537 21.3154 1.35613 21.2864 1.36961 21.249C1.3966 21.1743 1.43638 21.0644 1.48778 20.9248C1.59052 20.6457 1.73996 20.2451 1.92821 19.7559C2.30481 18.7772 2.83793 17.44 3.46238 16.0108C4.08584 14.5838 4.80617 13.0522 5.55809 11.6875C6.29962 10.3417 7.11174 9.08406 7.93309 8.26271L8.12938 8.07618C8.59714 7.65294 9.13498 7.31276 9.71922 7.0713C10.3867 6.79545 11.1024 6.65374 11.8247 6.65431C11.9343 6.6544 12.0437 6.65844 12.1528 6.66505C12.0575 6.30521 12.0005 5.91626 12.0005 5.50001C12.0005 4.09793 12.646 3.00404 13.23 2.29884C13.5255 1.94193 13.8197 1.66615 14.0415 1.47853C14.1529 1.38429 14.248 1.31065 14.3179 1.2588C14.3528 1.23284 14.3821 1.21151 14.4038 1.1963C14.4144 1.18889 14.4231 1.18256 14.4302 1.17775C14.4337 1.17533 14.4373 1.17364 14.4399 1.17189C14.4412 1.171 14.4428 1.16967 14.4438 1.16896L14.4448 1.16798H14.4458C14.4481 1.17083 14.4774 1.21347 14.8843 1.82521L14.4458 1.167C14.7812 0.943925 15.2187 0.943925 15.5542 1.167L15.0005 2.00001C15.517 1.22329 15.5516 1.17127 15.5542 1.16798H15.5552L15.5561 1.16896C15.5572 1.16967 15.5587 1.171 15.56 1.17189C15.5627 1.17365 15.5662 1.17532 15.5698 1.17775C15.5769 1.18256 15.5856 1.18889 15.5962 1.1963C15.6179 1.21151 15.6471 1.23284 15.6821 1.2588C15.7519 1.31066 15.847 1.38428 15.9585 1.47853C16.1803 1.66615 16.4744 1.94192 16.77 2.29884C17.354 3.00404 18.0005 4.09792 18.0005 5.50001Z" fill="#ADADAD"/>
</svg>
