<svg width="24" height="24" viewBox="0 0 24 24" xmlns="http://www.w3.org/2000/svg">
<path d="M11 17C11 15.8989 10.4976 14.9773 9.86523 14.5352C9.55921 14.3213 9.22702 14.2189 8.88379 14.2354C8.54058 14.2518 8.11266 14.3911 7.625 14.7812C7.25978 15.0734 6.74022 15.0734 6.375 14.7812C5.88734 14.3911 5.45942 14.2518 5.11621 14.2354C4.77298 14.2189 4.44079 14.3213 4.13477 14.5352C3.50238 14.9773 3 15.8989 3 17C3 18.0609 3.42173 19.078 4.17188 19.8281C4.92202 20.5783 5.93913 21 7 21C8.06087 21 9.07798 20.5783 9.82812 19.8281C10.5783 19.078 11 18.0609 11 17ZM12.4404 4.65625C12.1667 5.83993 11.8291 7.15179 11.3877 8.44922C10.9431 9.75587 10.3788 11.0935 9.6416 12.3037C10.1406 12.4044 10.6023 12.6109 11.0098 12.8955C11.3881 13.1598 11.7206 13.4899 12 13.8682C12.2794 13.4899 12.6119 13.1598 12.9902 12.8955C13.6217 12.4544 14.3834 12.1985 15.2119 12.2383C15.3775 12.2462 15.5424 12.2687 15.707 12.2998C15.6399 12.0462 15.5628 11.7776 15.4736 11.4961C15.1462 10.4622 14.6939 9.3149 14.1865 8.17383C13.6274 6.91646 13.0106 5.69164 12.4404 4.65625ZM13.999 3.21387C15.0005 4.61136 15.9974 5.67681 17.0518 6.44238C18.1362 7.22963 19.3063 7.71796 20.6562 7.9082C20.5838 7.76872 20.4995 7.61985 20.3994 7.46387C19.9712 6.79678 19.3298 6.07091 18.5088 5.40039C17.3036 4.41624 15.7553 3.5877 13.999 3.21387ZM13.0049 17.1982C13.0539 18.1869 13.4686 19.1248 14.1719 19.8281C14.922 20.5783 15.9391 21 17 21C18.0609 21 19.078 20.5783 19.8281 19.8281C20.5783 19.078 21 18.0609 21 17C21 15.8989 20.4976 14.9773 19.8652 14.5352C19.5592 14.3213 19.227 14.2189 18.8838 14.2354C18.5406 14.2518 18.1127 14.3911 17.625 14.7812C17.2598 15.0734 16.7402 15.0734 16.375 14.7812C15.8873 14.3911 15.4594 14.2518 15.1162 14.2354C14.773 14.2189 14.4408 14.3213 14.1348 14.5352C13.5024 14.9773 13 15.8989 13 17L13.0049 17.1982ZM23 17C23 18.5913 22.3674 20.117 21.2422 21.2422C20.117 22.3674 18.5913 23 17 23C15.4087 23 13.883 22.3674 12.7578 21.2422C12.473 20.9573 12.2194 20.6472 12 20.3164C11.7806 20.6472 11.527 20.9573 11.2422 21.2422C10.117 22.3674 8.5913 23 7 23C5.4087 23 3.88303 22.3674 2.75781 21.2422C1.63259 20.117 1 18.5913 1 17C1 15.3414 1.74786 13.7635 2.99023 12.8955C3.62165 12.4544 4.38338 12.1985 5.21191 12.2383C5.77199 12.2652 6.32769 12.4275 6.86523 12.7168C8.00729 11.4473 8.85114 9.69539 9.49414 7.80566C10.23 5.6429 10.6623 3.4392 11.0234 1.78613L11.0449 1.70215C11.1739 1.28769 11.5593 1 12 1C15.1292 1 17.8459 2.2775 19.7734 3.85156C20.7386 4.63974 21.5275 5.51901 22.082 6.38281C22.622 7.22399 23 8.14488 23 9C23 9.55229 22.5523 10 22 10C19.916 10 18.1127 9.49134 16.4863 8.47168C16.8257 9.29583 17.134 10.1161 17.3799 10.8926C17.5455 11.4156 17.6869 11.9337 17.7939 12.4287C18.1221 12.3189 18.4543 12.2543 18.7881 12.2383C19.6166 12.1985 20.3783 12.4544 21.0098 12.8955C22.2521 13.7635 23 15.3414 23 17Z" fill="currentColor"/>
</svg>
