<svg width="24" height="24" viewBox="0 0 24 24" fill="none" xmlns="http://www.w3.org/2000/svg">
<path d="M5.50176 1.01013C5.78993 1.00302 6.07646 1.05501 6.34355 1.16345C6.60759 1.2707 6.84645 1.43147 7.04668 1.63416L7.04766 1.63318L8.96563 3.55213C8.99093 3.57195 9.01608 3.59298 9.03984 3.6156C9.07495 3.64904 9.10637 3.68505 9.13555 3.72205L14.66 9.25037C14.6758 9.26432 14.6918 9.27832 14.7068 9.29334C14.7219 9.30839 14.7358 9.32433 14.7498 9.34021L22.367 16.9633C22.5691 17.1603 22.7287 17.3957 22.8367 17.6566C22.9477 17.9249 23.0012 18.214 22.9939 18.5043C22.9866 18.7944 22.9189 19.0799 22.7947 19.3422C22.6705 19.6045 22.4931 19.8382 22.2732 20.0277C22.2673 20.0328 22.2607 20.0374 22.2547 20.0424C19.7602 22.0924 16.5919 23.1411 13.367 22.9838C10.1423 22.8264 7.09137 21.4747 4.8084 19.1918C2.52531 16.9087 1.17371 13.8571 1.01641 10.6322C0.85919 7.4074 1.90786 4.23984 3.95781 1.74549L3.98125 1.71717C4.17246 1.50118 4.40623 1.32714 4.66777 1.20545C4.92932 1.08375 5.21337 1.0173 5.50176 1.01013ZM5.51152 3.01892C5.50079 3.02393 5.49152 3.03104 5.4832 3.03943C3.76158 5.1464 2.88088 7.81712 3.01348 10.5355C3.14667 13.2642 4.29071 15.846 6.22246 17.7777C8.15424 19.7094 10.736 20.8526 13.4646 20.9857C16.1867 21.1185 18.8603 20.2354 20.9686 18.5092C20.9759 18.5023 20.9828 18.4948 20.9871 18.4857C20.9918 18.4757 20.9946 18.4646 20.9949 18.4535C20.9951 18.4425 20.9933 18.4315 20.9891 18.4213C20.9848 18.411 20.9785 18.4016 20.9705 18.3939C20.9647 18.3884 20.9586 18.383 20.9529 18.3773L19.5926 17.016C17.9999 18.2278 16.0409 18.8825 14.0213 18.8549C11.6746 18.8226 9.43325 17.8743 7.7752 16.2133C6.1172 14.5522 5.17327 12.3091 5.14531 9.96228C5.12137 7.94616 5.77656 5.99172 6.98711 4.40271L5.6248 3.03943C5.61533 3.02975 5.60412 3.02213 5.5916 3.01697C5.57902 3.01186 5.56514 3.00888 5.55156 3.00916C5.53783 3.0095 5.52398 3.01313 5.51152 3.01892ZM14.9998 16.8011C16.1381 16.661 17.2244 16.2443 18.1629 15.5863L14.9998 12.4203V16.8011ZM9.95293 15.4603C10.85 16.1313 11.8951 16.5769 12.9998 16.7601V12.4144L9.95293 15.4603ZM7.24004 11.0004C7.42313 12.1046 7.86831 13.1493 8.53887 14.0463L11.5857 11.0004H7.24004ZM8.41582 5.8324C7.75622 6.7717 7.33936 7.86023 7.19902 9.00037H11.5818L8.41582 5.8324Z" fill="#ADADAD"/>
</svg>
