<svg width="22" height="22" viewBox="0 0 22 22" fill="none" xmlns="http://www.w3.org/2000/svg">
  <path
    d="M1.83337 17.4165V4.58313C1.83343 3.85386 2.12336 3.15447 2.63904 2.63879C3.15475 2.12313 3.85408 1.83313 4.58337 1.83313H11C11.5062 1.83313 11.9166 2.24363 11.9167 2.7498C11.9167 3.25606 11.5063 3.66646 11 3.66646H4.58337C4.34031 3.66646 4.10716 3.76317 3.93526 3.93502C3.7634 4.10688 3.66676 4.34009 3.66671 4.58313V17.4165C3.66671 17.6595 3.76342 17.8927 3.93526 18.0646C4.10717 18.2365 4.34026 18.3331 4.58337 18.3331H17.4167C17.6598 18.3331 17.8929 18.2365 18.0648 18.0646C18.2367 17.8927 18.3334 17.6595 18.3334 17.4165V10.9998C18.3335 10.4936 18.7438 10.0831 19.25 10.0831C19.7562 10.0831 20.1666 10.4936 20.1667 10.9998V17.4165C20.1667 18.1458 19.8767 18.8451 19.361 19.3608C18.8453 19.8765 18.1461 20.1665 17.4167 20.1665H4.58337C3.85403 20.1665 3.15476 19.8765 2.63904 19.3608C2.12338 18.8451 1.83337 18.1458 1.83337 17.4165ZM19.2465 3.78105C19.2464 3.50851 19.1384 3.24687 18.9457 3.05416C18.7529 2.86146 18.4914 2.75338 18.2188 2.75338C17.9462 2.75338 17.6847 2.86146 17.4919 3.05416L9.23026 11.3176H9.22937C9.12063 11.4261 9.04087 11.5605 8.99752 11.7079L8.4622 13.5367L10.2928 13.0023L10.4012 12.9629C10.4714 12.9324 10.5376 12.8935 10.5981 12.8466L10.684 12.7705L18.9457 4.50793C19.1384 4.31518 19.2465 4.05361 19.2465 3.78105ZM21.0798 3.78105C21.0798 4.53984 20.7784 5.26759 20.2419 5.80416L11.9803 14.0676H11.9794C11.6529 14.3937 11.2496 14.632 10.8067 14.7614L10.8076 14.7622L8.17395 15.5321H8.17305C7.93649 15.6011 7.68578 15.6049 7.44706 15.5437C7.20829 15.4826 6.99026 15.3582 6.81596 15.1839C6.64181 15.0097 6.51729 14.7922 6.4561 14.5537C6.39492 14.3149 6.39871 14.0634 6.46773 13.8268H6.46863L7.23848 11.1932V11.1923C7.35223 10.8048 7.5495 10.4474 7.81588 10.1458L7.93404 10.0205L16.1957 1.75793C16.7322 1.22142 17.46 0.920044 18.2188 0.920044C18.9776 0.920044 19.7053 1.22142 20.2419 1.75793C20.7784 2.29447 21.0797 3.02228 21.0798 3.78105Z"
    fill="#F6F6F5"
  />
</svg>
