<svg width="24" height="24" viewBox="0 0 24 24" xmlns="http://www.w3.org/2000/svg">
  <path
    d="M7.56765 4.03513C8.06258 3.79049 8.66262 3.99346 8.90749 4.48825C9.15226 4.98324 8.94926 5.58322 8.45437 5.8281C7.08045 6.50748 5.93082 7.56774 5.14187 8.88181C4.35292 10.1959 3.95796 11.7092 4.00417 13.2412C4.05047 14.773 4.53597 16.2594 5.40261 17.5234C6.26929 18.7874 7.48062 19.7758 8.89285 20.3711C10.3052 20.9664 11.8593 21.1441 13.3694 20.8818C14.8794 20.6195 16.2825 19.9291 17.4114 18.8925C18.5403 17.8559 19.3478 16.5164 19.7376 15.0342C20.1273 13.5518 20.0827 11.9881 19.6096 10.5302C19.4394 10.005 19.727 9.44089 20.2522 9.27048C20.7774 9.10007 21.3414 9.38793 21.512 9.91306C22.1033 11.7354 22.1584 13.69 21.6712 15.5429C21.1839 17.3956 20.175 19.0695 18.7639 20.3652C17.3527 21.661 15.5989 22.5247 13.7112 22.8525C11.8238 23.1803 9.88177 22.9588 8.11648 22.2148C6.35101 21.4706 4.83563 20.2344 3.75222 18.6543C2.66893 17.0742 2.06292 15.2157 2.00515 13.3008C1.94744 11.3859 2.44096 9.49497 3.42703 7.85251C4.41322 6.20992 5.85025 4.88436 7.56765 4.03513ZM7.20242 9.39646C7.53414 8.95489 8.16124 8.86552 8.60281 9.19724C9.04434 9.52897 9.13276 10.1561 8.80105 10.5976C8.40026 11.1312 8.13955 11.7568 8.04226 12.417C7.94496 13.0772 8.01452 13.7513 8.24441 14.3779C8.47428 15.0044 8.85747 15.5632 9.35867 16.0039C9.85993 16.4445 10.4637 16.7536 11.1145 16.9013C11.7653 17.049 12.443 17.0316 13.0852 16.8506C13.7276 16.6694 14.3144 16.3301 14.7923 15.8642C15.27 15.3984 15.6233 14.8201 15.8206 14.1826C16.0178 13.545 16.0524 12.8682 15.9212 12.2138C15.8126 11.6723 16.1638 11.1447 16.7053 11.0361C17.2468 10.9276 17.7735 11.2789 17.8821 11.8203C18.0789 12.8018 18.0276 13.8171 17.7317 14.7734C17.4359 15.7297 16.9054 16.597 16.1887 17.2959C15.472 17.9948 14.5908 18.5037 13.6272 18.7754C12.6638 19.0469 11.6473 19.0731 10.6712 18.8515C9.69516 18.63 8.79008 18.1676 8.03835 17.5068C7.28655 16.8459 6.71134 16.0071 6.36648 15.0674C6.02163 14.1275 5.91778 13.1154 6.06374 12.125C6.20975 11.1347 6.60122 10.1968 7.20242 9.39646ZM11.0003 13V1.99997C11.0003 1.65349 11.1792 1.33162 11.4739 1.14939C11.7687 0.967178 12.1375 0.950445 12.4475 1.10544L20.4475 5.10544C20.7862 5.27488 21.0003 5.62129 21.0003 5.99997C21.0003 6.37865 20.7862 6.72506 20.4475 6.8945L13.0003 10.6181V13C13.0003 13.5522 12.5524 13.9998 12.0003 14C11.448 14 11.0003 13.5523 11.0003 13ZM13.0003 8.38181L17.7639 5.99997L13.0003 3.61813V8.38181Z"
    fill="currentColor" />
</svg>
