<svg width="24" height="24" viewBox="0 0 24 24" xmlns="http://www.w3.org/2000/svg">
<path d="M18.5996 15.8897C18.5994 14.7852 17.7041 13.8897 16.5996 13.8897C15.4953 13.8899 14.5998 14.7854 14.5996 15.8897C14.5996 16.9941 15.4952 17.8894 16.5996 17.8897C17.7042 17.8897 18.5996 16.9942 18.5996 15.8897ZM10.7998 15.4404C10.2683 15.4405 9.7859 15.6481 9.42773 15.9863C9.40222 16.0126 9.37681 16.0389 9.35059 16.0645C9.01016 16.423 8.7998 16.907 8.7998 17.4404C8.80004 18.5447 9.69547 19.4403 10.7998 19.4404C11.9042 19.4404 12.7996 18.5448 12.7998 17.4404C12.7998 16.5539 12.2226 15.8033 11.4238 15.541C11.3451 15.5224 11.2673 15.5018 11.1904 15.4785C11.0641 15.4535 10.9334 15.4404 10.7998 15.4404ZM12.3496 9.65039C11.2452 9.6506 10.3496 10.546 10.3496 11.6504C10.3496 11.7848 10.3634 11.916 10.3887 12.043C10.412 12.1204 10.4324 12.199 10.4512 12.2783C10.6492 12.877 11.1222 13.3495 11.7207 13.5479C11.8001 13.5666 11.8786 13.587 11.9561 13.6104C12.0833 13.6358 12.2148 13.6504 12.3496 13.6504C13.454 13.6504 14.3494 12.7548 14.3496 11.6504C14.3496 10.5458 13.4542 9.65039 12.3496 9.65039ZM13.9102 3.84961C12.8057 3.84961 11.9104 4.74522 11.9102 5.84961C11.9102 6.95418 12.8056 7.84961 13.9102 7.84961C14.4416 7.84957 14.9231 7.64093 15.2812 7.30274C15.3072 7.27599 15.3336 7.24965 15.3604 7.22364C15.7 6.86519 15.9102 6.38236 15.9102 5.84961C15.9099 4.74527 15.0145 3.8497 13.9102 3.84961ZM21 5V4.41406L19.1875 6.22656C20.8935 6.68356 22.1503 8.23967 22.1504 10.0898C22.1504 11.6597 21.2449 13.017 19.9287 13.6719C20.3525 14.3066 20.5995 15.0692 20.5996 15.8897C20.5996 18.0988 18.8087 19.8897 16.5996 19.8897C15.7791 19.8896 15.0166 19.6426 14.3818 19.2188C13.727 20.5349 12.3697 21.4404 10.7998 21.4404C9.98103 21.4404 9.2199 21.1937 8.58594 20.7715C7.9325 22.0917 6.57282 23 5 23C2.79086 23 1 21.2091 1 19C1 17.4273 1.90756 16.0666 3.22754 15.4131C2.80583 14.7794 2.55961 14.0185 2.55957 13.2002C2.55957 11.6305 3.46434 10.2721 4.78027 9.61719C4.35693 8.98269 4.11043 8.22037 4.11035 7.40039C4.11035 5.19125 5.90121 3.40039 8.11035 3.40039C8.93034 3.40046 9.69264 3.64697 10.3271 4.07031C10.9821 2.75436 12.3404 1.84961 13.9102 1.84961C15.7603 1.84968 17.3164 3.10647 17.7734 4.8125L21.293 1.29297C21.579 1.00697 22.0091 0.921393 22.3828 1.07617C22.7564 1.23099 23 1.59559 23 2V5C23 5.55229 22.5523 6 22 6C21.4477 6 21 5.55229 21 5ZM3 19C3 20.1046 3.89543 21 5 21C6.10457 21 7 20.1046 7 19C7 17.8954 6.10457 17 5 17C3.89543 17 3 17.8954 3 19ZM20.1504 10.0898C20.1503 8.98548 19.2547 8.09006 18.1504 8.08985C17.6176 8.08985 17.1338 8.29906 16.7754 8.63867C16.7505 8.66425 16.7258 8.68994 16.7002 8.71485C16.36 9.07336 16.1504 9.55663 16.1504 10.0898C16.1504 11.1944 17.0458 12.0898 18.1504 12.0898C19.2548 12.0896 20.1504 11.1943 20.1504 10.0898ZM4.55957 13.2002C4.55968 14.3045 5.45526 15.2 6.55957 15.2002C7.0923 15.2002 7.57515 14.99 7.93359 14.6504C7.95961 14.6237 7.98595 14.5973 8.0127 14.5713C8.35091 14.2131 8.55952 13.7317 8.55957 13.2002C8.55957 13.0662 8.54565 12.9352 8.52051 12.8086C8.49711 12.7312 8.47676 12.6526 8.45801 12.5732C8.19487 11.776 7.44502 11.2002 6.55957 11.2002C5.4552 11.2004 4.55957 12.0958 4.55957 13.2002ZM6.11035 7.40039C6.11056 8.50478 7.00591 9.40039 8.11035 9.40039C9.21463 9.4002 10.1101 8.50467 10.1104 7.40039C10.1104 6.29594 9.21476 5.40058 8.11035 5.40039C7.00578 5.40039 6.11035 6.29582 6.11035 7.40039Z" fill="currentColor"/>
</svg>
