<svg width="24" height="24" viewBox="0 0 24 24" xmlns="http://www.w3.org/2000/svg">
<path d="M20.9751 5.52535C20.9751 5.19702 20.9103 4.87165 20.7846 4.56832C20.659 4.26499 20.4748 3.98896 20.2426 3.7568C20.0106 3.52481 19.7353 3.3404 19.4321 3.21481C19.1288 3.08917 18.8034 3.02438 18.4751 3.02438C17.8121 3.02438 17.1763 3.28814 16.7075 3.7568C16.5187 3.94561 16.2616 4.05116 15.9946 4.04977C15.7277 4.04832 15.4724 3.94059 15.2856 3.74996C14.9845 3.44254 14.609 3.21748 14.1958 3.09762C13.7825 2.97781 13.345 2.96678 12.9262 3.06539C12.5075 3.16404 12.1215 3.36948 11.8051 3.66109C11.4888 3.95276 11.2529 4.32097 11.1206 4.73043C11.0292 5.0134 10.8166 5.24107 10.5405 5.35152C10.2643 5.46195 9.95323 5.44364 9.69186 5.30172C9.27819 5.07706 8.80912 4.97391 8.33933 5.00387C7.86982 5.03386 7.41822 5.19554 7.03659 5.47066C6.6548 5.74604 6.35781 6.12418 6.18112 6.56051C6.00451 6.99677 5.95497 7.47411 6.03757 7.93746C6.13025 8.45731 5.80257 8.95998 5.28952 9.08492C4.81728 9.19996 4.37968 9.42754 4.01511 9.74899C3.65053 10.0705 3.37 10.4765 3.19675 10.9306C3.02359 11.3847 2.96313 11.8739 3.02097 12.3564C3.07878 12.8387 3.25245 13.3 3.5278 13.7002H3.52878C3.91353 14.2584 4.39132 14.9411 4.73386 15.6709C4.97238 16.1791 5.16211 16.7517 5.21335 17.3711L16.2925 6.29293C16.683 5.90241 17.317 5.90241 17.7075 6.29293C18.0977 6.68339 18.0977 7.31652 17.7075 7.70699L6.57761 18.8359C7.96418 18.9796 9.27399 19.5623 10.313 20.5068C10.705 20.7724 11.1541 20.9424 11.6245 21.0009C12.1103 21.0614 12.6034 21.002 13.061 20.8281C13.5187 20.654 13.9275 20.37 14.2505 20.0019C14.5732 19.6339 14.8006 19.1921 14.9135 18.7158C15.0361 18.1999 15.5409 17.8698 16.063 17.9629C16.5262 18.0454 17.0037 17.9949 17.4399 17.8183C17.8761 17.6416 18.2535 17.3455 18.5288 16.9638C18.8042 16.582 18.9666 16.1299 18.9966 15.6601C19.0264 15.1906 18.9231 14.722 18.6987 14.3086C18.5568 14.0472 18.5385 13.7361 18.6489 13.4599C18.7593 13.1838 18.987 12.9713 19.27 12.8798C19.6794 12.7475 20.0477 12.5116 20.3393 12.1953C20.631 11.8789 20.8354 11.4921 20.9341 11.0732C21.0326 10.6544 21.0217 10.2169 20.9018 9.80367C20.782 9.39071 20.5576 9.01573 20.2505 8.71481C20.0597 8.52797 19.9511 8.27186 19.9497 8.00484C19.9484 7.73803 20.054 7.48164 20.2426 7.29293C20.4748 7.06077 20.659 6.78474 20.7846 6.48141C20.9102 6.17825 20.975 5.85348 20.9751 5.52535ZM22.9751 5.52535C22.975 6.1162 22.8584 6.70115 22.6323 7.24703C22.5241 7.50833 22.3912 7.75779 22.2368 7.99313C22.4944 8.37702 22.6929 8.79947 22.8227 9.24703C23.0385 9.99093 23.0588 10.7783 22.8813 11.5322C22.7038 12.2859 22.3349 12.9814 21.81 13.5507C21.5261 13.8587 21.1997 14.1213 20.8452 14.3379C20.9711 14.8081 21.0239 15.2975 20.9926 15.788C20.9387 16.6335 20.6465 17.4466 20.1509 18.1338C19.6552 18.8209 18.9753 19.3548 18.1899 19.6728C17.6777 19.8802 17.134 19.9876 16.5864 19.998C16.3799 20.4782 16.1005 20.9256 15.7534 21.3213C15.2152 21.9347 14.5347 22.4071 13.7719 22.6972C13.0092 22.9872 12.1872 23.0861 11.3774 22.9853C10.5676 22.8845 9.79481 22.5873 9.12644 22.1191C9.08796 22.0921 9.05137 22.0623 9.01706 22.0302C8.18995 21.2564 7.10488 20.8188 5.97409 20.8007C4.71825 20.9945 3.95248 21.7327 2.6196 22.7851C2.22068 23.0999 1.64874 23.0655 1.2905 22.705C0.932304 22.3446 0.901946 21.7729 1.21921 21.3759C2.28821 20.0392 2.99122 19.2674 3.21335 17.9355C3.27306 17.5122 3.17376 17.0541 2.92331 16.5205C2.66462 15.9693 2.29054 15.4296 1.88132 14.8359V14.8349C1.42193 14.1677 1.13107 13.399 1.03464 12.5947C0.938233 11.7904 1.03898 10.9746 1.32761 10.2177C1.61638 9.46076 2.08514 8.7848 2.69284 8.24899C3.08428 7.90387 3.52628 7.62413 4.00144 7.41695C4.01142 6.86808 4.11971 6.32292 4.32761 5.80953C4.64565 5.02419 5.17947 4.34425 5.86667 3.84859C6.55381 3.35312 7.36694 3.06168 8.21237 3.00777C8.70223 2.97654 9.19094 3.0277 9.66061 3.15328C9.87713 2.79894 10.1419 2.47417 10.4497 2.19039C11.0191 1.66548 11.7144 1.29661 12.4682 1.1191C13.2222 0.941582 14.0095 0.960976 14.7534 1.17672C15.2005 1.30643 15.6217 1.50631 16.0053 1.76363C16.7335 1.28552 17.5908 1.02438 18.4751 1.02438C19.0659 1.02438 19.6509 1.14112 20.1967 1.36715C20.7426 1.59325 21.2389 1.92499 21.6567 2.34274C22.0745 2.76055 22.4061 3.25681 22.6323 3.8027C22.8585 4.34869 22.9751 4.93438 22.9751 5.52535Z" fill="currentColor"/>
</svg>
