<svg width="181" height="40" viewBox="0 0 181 40" fill="none" xmlns="http://www.w3.org/2000/svg">
<path d="M18.333 36.6668V24.8798C12.6957 24.0656 8.33301 19.188 8.33301 13.3332V4.99999C8.33301 4.50073 8.55693 4.02779 8.94298 3.71123C9.32913 3.39466 9.83707 3.26775 10.3267 3.36567L9.99977 4.99999C10.3266 3.36569 10.3273 3.36586 10.3279 3.36597C10.3282 3.36603 10.3287 3.36619 10.3291 3.36627C10.33 3.36646 10.331 3.36665 10.3321 3.36688C10.3344 3.36733 10.3371 3.36775 10.3402 3.36838C10.3463 3.36964 10.3541 3.37122 10.3634 3.37319C10.382 3.37713 10.4071 3.38249 10.4382 3.38941C10.5002 3.40325 10.5866 3.42332 10.6945 3.45011C10.9101 3.50365 11.2132 3.58464 11.5836 3.69861C12.3229 3.92607 13.3401 4.28804 14.4709 4.83082C16.7131 5.90708 19.518 7.75105 21.4132 10.7833C21.901 11.5639 21.6636 12.5921 20.8832 13.0799C20.1026 13.5678 19.0742 13.3304 18.5863 12.5499C17.1482 10.2489 14.953 8.75965 13.0286 7.83593C12.5435 7.60307 12.0829 7.40955 11.6665 7.25089V13.3332C11.6665 17.9127 15.4202 21.6668 19.9998 21.6668C20.9202 21.6668 21.6665 22.4128 21.6665 23.3332V36.6668C21.6665 37.5872 20.9202 38.3332 19.9998 38.3332C19.0793 38.3332 18.3331 37.5872 18.333 36.6668ZM9.66985 6.6337C9.67016 6.63377 9.67055 6.6339 9.67105 6.634H9.67165C9.67014 6.63369 9.66914 6.63344 9.66894 6.6334C9.66894 6.6334 9.66933 6.6336 9.66985 6.6337Z" fill="#F6F6F5"/>
<path d="M19.2544 1.84263C19.7236 1.60803 20.2758 1.60805 20.7451 1.84263L19.9999 3.33332C20.7452 1.84264 20.7456 1.84274 20.746 1.84293L20.7469 1.84353L20.7667 1.85345C20.7771 1.85874 20.7905 1.8659 20.807 1.87448C20.84 1.8917 20.8853 1.91543 20.941 1.9457C21.0521 2.00614 21.2061 2.09254 21.3911 2.20351C21.7591 2.42433 22.2599 2.74836 22.7937 3.16354C23.81 3.95396 25.1724 5.24778 25.7475 6.97304C26.0385 7.84626 25.5666 8.79014 24.6934 9.08121C23.8202 9.3722 22.8763 8.90029 22.5852 8.02713C22.327 7.25242 21.6062 6.46275 20.7475 5.79486C20.4823 5.58863 20.2249 5.41095 19.9996 5.26481C19.7743 5.41092 19.5173 5.58872 19.2523 5.79486C18.3935 6.46277 17.6725 7.25239 17.4142 8.02713C17.1231 8.9003 16.1793 9.37226 15.3061 9.08121C14.4328 8.79014 13.961 7.84625 14.252 6.97304C14.8271 5.24778 16.1894 3.95396 17.2057 3.16354C17.7395 2.74834 18.2403 2.42434 18.6083 2.20351C18.7933 2.0925 18.9476 2.00615 19.0588 1.9457C19.1143 1.91547 19.1594 1.89169 19.1925 1.87448C19.209 1.86587 19.2226 1.85875 19.233 1.85345C19.2381 1.85086 19.2424 1.84863 19.246 1.84684C19.2477 1.84596 19.2494 1.84512 19.2508 1.84443C19.2515 1.84409 19.2523 1.84383 19.2529 1.84353C19.2532 1.84339 19.2536 1.843 19.2538 1.84293C19.2547 1.84386 19.2726 1.87915 19.8391 3.0121L19.2544 1.84263ZM20.7457 4.8234H20.7466C20.7469 4.82323 20.7472 4.82293 20.7475 4.8228C20.747 4.82302 20.7463 4.82307 20.7457 4.8234Z" fill="#F6F6F5"/>
<path d="M28.3333 7.13641C24.6631 8.47221 21.3901 11.9427 19.6143 15.4775C18.5764 17.5436 18.2127 19.3222 18.3817 20.4279C18.4603 20.942 18.635 21.2043 18.7991 21.3461C18.9603 21.4855 19.2939 21.6667 19.9998 21.6668C24.5793 21.6668 28.3333 17.9128 28.3333 13.3332V7.13641ZM31.6666 13.3332C31.6666 19.7537 26.4203 25 19.9998 25C18.7059 25 17.5291 24.6548 16.6188 23.8678C15.7114 23.0832 15.2529 22.0189 15.0866 20.9315C14.7661 18.8341 15.4653 16.3107 16.6356 13.9811C18.9738 9.32677 23.8442 4.20949 29.7606 3.35065C30.2394 3.28119 30.7247 3.42322 31.0905 3.73978C31.4563 4.05636 31.6666 4.51621 31.6666 4.99999V13.3332Z" fill="#178FFF"/>
<path d="M8.33327 26.6666C12.023 26.6666 15.3135 27.408 17.7323 29.0617C20.2305 30.7697 21.6665 33.369 21.6665 36.6666C21.6665 37.587 20.9205 38.3333 20 38.3333C16.3104 38.3333 13.0198 37.5921 10.601 35.9385C8.10277 34.2305 6.6665 31.631 6.6665 28.3333C6.6665 27.4129 7.4128 26.6666 8.33327 26.6666ZM10.2179 30.0788C10.5731 31.3968 11.3529 32.4146 12.4823 33.1867C13.8155 34.0981 15.7121 34.7122 18.1151 34.9208C17.7598 33.6031 16.9802 32.5855 15.851 31.8135C14.5178 30.902 12.621 30.2874 10.2179 30.0788Z" fill="#F6F6F5"/>
<path d="M31.6665 26.6666C32.587 26.6666 33.333 27.4129 33.333 28.3333C33.333 31.631 31.897 34.2305 29.3988 35.9385C26.98 37.5921 23.6895 38.3333 19.9998 38.3333C19.0793 38.3333 18.333 37.587 18.333 36.6666C18.333 33.369 19.7693 30.7697 22.2675 29.0617C24.6863 27.408 27.9768 26.6666 31.6665 26.6666ZM29.7816 30.0788C27.3786 30.2874 25.482 30.902 24.1488 31.8135C23.0195 32.5856 22.2397 33.603 21.8844 34.9208C24.2875 34.7122 26.1843 34.0982 27.5175 33.1867C28.6469 32.4146 29.4264 31.3967 29.7816 30.0788Z" fill="#178FFF"/>
<path d="M166.194 36.0071V14.5455H169.812V17.1266H170.025C170.215 16.7472 170.483 16.3441 170.828 15.9174C171.174 15.4838 171.641 15.1146 172.23 14.8097C172.82 14.4981 173.572 14.3423 174.486 14.3423C175.692 14.3423 176.779 14.6505 177.748 15.267C178.724 15.8767 179.496 16.7811 180.065 17.9802C180.641 19.1725 180.929 20.6358 180.929 22.37C180.929 24.084 180.648 25.5405 180.085 26.7396C179.523 27.9387 178.758 28.8532 177.789 29.4832C176.82 30.1133 175.723 30.4283 174.496 30.4283C173.602 30.4283 172.86 30.2792 172.271 29.9812C171.682 29.6831 171.207 29.324 170.848 28.904C170.496 28.4772 170.222 28.0741 170.025 27.6948H169.873V36.0071H166.194ZM169.802 22.3497C169.802 23.3591 169.944 24.2432 170.229 25.0019C170.52 25.7607 170.936 26.3534 171.478 26.7802C172.027 27.2002 172.691 27.4102 173.47 27.4102C174.283 27.4102 174.964 27.1935 175.513 26.7599C176.061 26.3196 176.475 25.72 176.752 24.9613C177.037 24.1958 177.179 23.3252 177.179 22.3497C177.179 21.381 177.04 20.5206 176.763 19.7686C176.485 19.0167 176.072 18.4273 175.523 18.0005C174.974 17.5737 174.29 17.3603 173.47 17.3603C172.684 17.3603 172.017 17.5669 171.468 17.9802C170.92 18.3934 170.503 18.9726 170.218 19.7178C169.941 20.463 169.802 21.3403 169.802 22.3497Z" fill="white"/>
<path d="M154.254 30.4689C153.265 30.4689 152.374 30.2928 151.582 29.9405C150.796 29.5815 150.173 29.0531 149.712 28.3553C149.258 27.6575 149.031 26.7972 149.031 25.7742C149.031 24.8935 149.194 24.1653 149.519 23.5894C149.844 23.0136 150.288 22.5529 150.85 22.2075C151.412 21.862 152.046 21.6011 152.75 21.425C153.462 21.2421 154.197 21.11 154.956 21.0287C155.87 20.9338 156.612 20.8492 157.181 20.7746C157.75 20.6934 158.163 20.5714 158.421 20.4088C158.685 20.2395 158.817 19.9786 158.817 19.6264V19.5654C158.817 18.7999 158.59 18.2071 158.136 17.7871C157.682 17.3671 157.029 17.1571 156.175 17.1571C155.274 17.1571 154.559 17.3535 154.031 17.7465C153.509 18.1394 153.157 18.6034 152.974 19.1386L149.539 18.6509C149.81 17.7024 150.257 16.9098 150.881 16.273C151.504 15.6294 152.266 15.1484 153.167 14.83C154.068 14.5049 155.064 14.3423 156.155 14.3423C156.907 14.3423 157.655 14.4304 158.4 14.6065C159.146 14.7826 159.826 15.0739 160.443 15.4804C161.059 15.8801 161.554 16.4254 161.926 17.1164C162.306 17.8074 162.496 18.6712 162.496 19.7077V30.1539H158.959V28.0098H158.837C158.614 28.4434 158.299 28.8498 157.892 29.2292C157.493 29.6018 156.988 29.9033 156.378 30.1336C155.775 30.3571 155.067 30.4689 154.254 30.4689ZM155.21 27.7659C155.948 27.7659 156.588 27.6203 157.13 27.329C157.672 27.0309 158.089 26.638 158.38 26.1502C158.678 25.6624 158.827 25.1306 158.827 24.5548V22.7155C158.712 22.8104 158.516 22.8984 158.238 22.9797C157.967 23.061 157.662 23.1322 157.323 23.1931C156.984 23.2541 156.649 23.3083 156.317 23.3557C155.985 23.4031 155.697 23.4438 155.453 23.4777C154.905 23.5522 154.414 23.6741 153.98 23.8435C153.546 24.0128 153.204 24.25 152.954 24.5548C152.703 24.8529 152.578 25.239 152.578 25.7132C152.578 26.3907 152.825 26.9022 153.319 27.2477C153.814 27.5932 154.444 27.7659 155.21 27.7659Z" fill="white"/>
<path d="M142.302 30.1539V14.5455H145.98V30.1539H142.302ZM144.151 12.3302C143.568 12.3302 143.067 12.1372 142.647 11.751C142.227 11.3581 142.017 10.8873 142.017 10.3385C142.017 9.78302 142.227 9.31219 142.647 8.92605C143.067 8.53313 143.568 8.33667 144.151 8.33667C144.74 8.33667 145.242 8.53313 145.655 8.92605C146.075 9.31219 146.285 9.78302 146.285 10.3385C146.285 10.8873 146.075 11.3581 145.655 11.751C145.242 12.1372 144.74 12.3302 144.151 12.3302Z" fill="white"/>
<path d="M125.697 30.1538V9.34265H139.029V12.5029H129.467V18.1529H138.115V21.3132H129.467V30.1538H125.697Z" fill="white"/>
<path d="M92.7554 30.1539V14.5455H96.2713V17.1977H96.4542C96.7794 16.3035 97.318 15.6057 98.0699 15.1044C98.8219 14.5963 99.7195 14.3423 100.763 14.3423C101.82 14.3423 102.71 14.5997 103.435 15.1146C104.167 15.6227 104.682 16.317 104.98 17.1977H105.142C105.488 16.3306 106.071 15.6396 106.89 15.1247C107.717 14.6031 108.696 14.3423 109.827 14.3423C111.263 14.3423 112.435 14.7962 113.343 15.704C114.251 16.6117 114.705 17.9361 114.705 19.6772V30.1539H111.016V20.2462C111.016 19.2775 110.759 18.5696 110.244 18.1224C109.729 17.6686 109.099 17.4416 108.354 17.4416C107.466 17.4416 106.772 17.7194 106.27 18.2749C105.776 18.8236 105.529 19.5383 105.529 20.419V30.1539H101.921V20.0938C101.921 19.2877 101.677 18.6441 101.19 18.1631C100.709 17.6821 100.079 17.4416 99.2995 17.4416C98.7711 17.4416 98.2901 17.5771 97.8565 17.8481C97.423 18.1123 97.0775 18.4883 96.8201 18.976C96.5626 19.457 96.4339 20.0193 96.4339 20.6629V30.1539H92.7554Z" fill="white"/>
<path d="M81.4106 30.1538V14.5455H84.9774V17.1469H85.14C85.4245 16.2459 85.9123 15.5515 86.6033 15.0637C87.301 14.5692 88.097 14.3219 88.9913 14.3219C89.1945 14.3219 89.4215 14.3321 89.6721 14.3524C89.9295 14.3659 90.1429 14.3896 90.3123 14.4235V17.8074C90.1565 17.7532 89.9092 17.7058 89.5705 17.6651C89.2385 17.6177 88.9168 17.594 88.6051 17.594C87.9345 17.594 87.3315 17.7396 86.7963 18.0309C86.2679 18.3155 85.8513 18.7118 85.5465 19.2198C85.2416 19.7279 85.0892 20.3139 85.0892 20.9778V30.1538H81.4106Z" fill="white"/>
<path d="M69.4697 30.4689C68.4806 30.4689 67.5898 30.2928 66.7972 29.9405C66.0113 29.5815 65.3881 29.0531 64.9274 28.3553C64.4735 27.6575 64.2466 26.7972 64.2466 25.7742C64.2466 24.8935 64.4092 24.1653 64.7343 23.5894C65.0595 23.0136 65.5032 22.5529 66.0655 22.2075C66.6278 21.862 67.2612 21.6011 67.9658 21.425C68.6771 21.2421 69.4121 21.11 70.1709 21.0287C71.0854 20.9338 71.8272 20.8492 72.3963 20.7746C72.9653 20.6934 73.3786 20.5714 73.636 20.4088C73.9002 20.2395 74.0323 19.9786 74.0323 19.6264V19.5654C74.0323 18.7999 73.8054 18.2071 73.3515 17.7871C72.8976 17.3671 72.2438 17.1571 71.3903 17.1571C70.4893 17.1571 69.7745 17.3535 69.2461 17.7465C68.7245 18.1394 68.3722 18.6034 68.1893 19.1386L64.7547 18.6509C65.0256 17.7024 65.4728 16.9098 66.096 16.273C66.7193 15.6294 67.4814 15.1484 68.3824 14.83C69.2834 14.5049 70.2792 14.3423 71.3699 14.3423C72.1219 14.3423 72.8705 14.4304 73.6157 14.6065C74.3609 14.7826 75.0417 15.0739 75.6582 15.4804C76.2747 15.8801 76.7692 16.4254 77.1418 17.1164C77.5212 17.8074 77.7108 18.6712 77.7108 19.7077V30.1539H74.1746V28.0098H74.0526C73.8291 28.4434 73.5141 28.8498 73.1076 29.2292C72.7079 29.6018 72.2032 29.9033 71.5935 30.1336C70.9906 30.3571 70.2826 30.4689 69.4697 30.4689ZM70.4249 27.7659C71.1633 27.7659 71.8035 27.6203 72.3455 27.329C72.8874 27.0309 73.304 26.638 73.5953 26.1502C73.8934 25.6624 74.0425 25.1306 74.0425 24.5548V22.7155C73.9273 22.8104 73.7308 22.8984 73.4531 22.9797C73.1821 23.061 72.8773 23.1322 72.5385 23.1931C72.1998 23.2541 71.8645 23.3083 71.5325 23.3557C71.2006 23.4031 70.9127 23.4438 70.6688 23.4777C70.12 23.5522 69.6289 23.6741 69.1953 23.8435C68.7618 24.0128 68.4197 24.25 68.169 24.5548C67.9183 24.8529 67.793 25.239 67.793 25.7132C67.793 26.3907 68.0403 26.9022 68.5348 27.2477C69.0294 27.5932 69.6594 27.7659 70.4249 27.7659Z" fill="white"/>
<path d="M48.5142 30.1538V9.34265H61.8463V12.5029H52.2842V18.1529H60.9318V21.3132H52.2842V30.1538H48.5142Z" fill="white"/>
</svg>
