<svg width="24" height="24" viewBox="0 0 24 24" fill="none" xmlns="http://www.w3.org/2000/svg">
<path d="M19 4H18C17.2044 4 16.4415 4.3163 15.8789 4.87891C15.3163 5.44152 15 6.20435 15 7V8.10059C15.3267 8.03391 15.6616 8 16 8C16.7956 8 17.5585 7.6837 18.1211 7.12109C18.6837 6.55848 19 5.79565 19 5V4ZM6.64062 9.0166C6.07376 9.06774 5.52645 9.2388 5.03418 9.5166C5.10723 10.0774 5.29832 10.6182 5.59766 11.1025C5.98819 11.7344 6.54651 12.2459 7.21094 12.5781C7.87536 12.9103 8.61953 13.0501 9.35938 12.9834C9.92611 12.9323 10.4727 12.7601 10.9648 12.4824C10.8917 11.9221 10.7015 11.3815 10.4023 10.8975C10.0118 10.2656 9.45349 9.75409 8.78906 9.42188C8.12464 9.08966 7.38047 8.94989 6.64062 9.0166ZM21 5C21 6.32608 20.4728 7.59747 19.5352 8.53516C18.5975 9.47284 17.3261 10 16 10C15.2044 10 14.4415 10.3163 13.8789 10.8789C13.3163 11.4415 13 12.2044 13 13C13 13.8215 13.1984 14.4341 13.4482 15.1836C13.6984 15.934 14 16.8216 14 18C14 18.6859 13.881 19.3616 13.6553 20H19C19.5523 20 20 20.4477 20 21C20 21.5523 19.5523 22 19 22H5C4.44772 22 4 21.5523 4 21C4 20.4477 4.44772 20 5 20H11.4609C11.8111 19.394 12 18.7055 12 18C12 17.1785 11.8016 16.5659 11.5518 15.8164C11.4282 15.4456 11.2916 15.0412 11.1855 14.585C10.66 14.7906 10.1065 14.9244 9.53906 14.9756C8.42929 15.0757 7.31304 14.8645 6.31641 14.3662C5.31998 13.8679 4.48221 13.102 3.89648 12.1543C3.31068 11.2064 3 10.1143 3 9C3 8.68524 3.14858 8.38905 3.40039 8.2002C4.29171 7.53175 5.35132 7.12451 6.46094 7.02441C7.57071 6.92435 8.68696 7.13547 9.68359 7.63379C10.68 8.13209 11.5178 8.89802 12.1035 9.8457C12.1059 9.84951 12.108 9.85361 12.1104 9.85742C12.2207 9.72081 12.3395 9.59019 12.4648 9.46484C12.633 9.2967 12.812 9.14203 13 9.00098V7C13 5.67392 13.5272 4.40253 14.4648 3.46484C15.4025 2.52716 16.6739 2 18 2H19.5C19.8978 2 20.2792 2.15815 20.5605 2.43945C20.8419 2.72076 21 3.10218 21 3.5V5Z" fill="#ADADAD"/>
</svg>
