<svg width="22" height="22" viewBox="0 0 22 22" fill="none" xmlns="http://www.w3.org/2000/svg">
  <path
    d="M16.5 6.41663H5.50004V18.3333C5.50004 18.5764 5.59669 18.8095 5.7686 18.9814C5.9405 19.1533 6.17359 19.25 6.41671 19.25H15.5834C15.8265 19.25 16.0596 19.1533 16.2315 18.9814C16.4034 18.8095 16.5 18.5764 16.5 18.3333V6.41663ZM8.25004 15.5833V10.0833C8.25004 9.57703 8.66045 9.16663 9.16671 9.16663C9.67297 9.16663 10.0834 9.57703 10.0834 10.0833V15.5833C10.0834 16.0896 9.67297 16.5 9.16671 16.5C8.66045 16.5 8.25004 16.0896 8.25004 15.5833ZM11.9167 15.5833V10.0833C11.9167 9.57703 12.3271 9.16663 12.8334 9.16663C13.3396 9.16663 13.75 9.57703 13.75 10.0833V15.5833C13.75 16.0896 13.3396 16.5 12.8334 16.5C12.3271 16.5 11.9167 16.0896 11.9167 15.5833ZM13.75 3.66663C13.75 3.42351 13.6534 3.19042 13.4815 3.01851C13.3096 2.84661 13.0765 2.74996 12.8334 2.74996H9.16671C8.92359 2.74996 8.6905 2.84661 8.5186 3.01851C8.34669 3.19042 8.25004 3.42351 8.25004 3.66663V4.58329H13.75V3.66663ZM15.5834 4.58329H19.25C19.7563 4.58329 20.1667 4.9937 20.1667 5.49996C20.1667 6.00622 19.7563 6.41663 19.25 6.41663H18.3334V18.3333C18.3334 19.0626 18.0434 19.7619 17.5277 20.2776C17.012 20.7934 16.3127 21.0833 15.5834 21.0833H6.41671C5.68736 21.0833 4.9881 20.7934 4.47237 20.2776C3.95665 19.7619 3.66671 19.0626 3.66671 18.3333V6.41663H2.75004C2.24378 6.41663 1.83337 6.00622 1.83337 5.49996C1.83337 4.9937 2.24378 4.58329 2.75004 4.58329H6.41671V3.66663C6.41671 2.93728 6.70665 2.23801 7.22237 1.72229C7.7381 1.20657 8.43736 0.916626 9.16671 0.916626H12.8334C13.5627 0.916626 14.262 1.20657 14.7777 1.72229C15.2934 2.23801 15.5834 2.93728 15.5834 3.66663V4.58329Z"
    fill="#f6f6f5"
  />
</svg>
