<svg width="24" height="24" viewBox="0 0 24 24" fill="none" xmlns="http://www.w3.org/2000/svg">
<path d="M21.9998 1C22.5521 1 22.9998 1.44772 22.9998 2C22.9998 3.88565 22.5863 5.49901 21.6424 6.71289C22.8164 8.85386 23.2513 11.331 22.8592 13.7559C22.426 16.4352 21.017 18.8599 18.9041 20.5635C16.9591 22.1316 14.5432 22.9841 12.0575 22.9971C12.0329 22.9985 12.0082 22.9995 11.9832 22.999C11.7933 22.9987 11.6025 22.9946 11.412 22.9844C8.70174 22.8393 6.14068 21.6975 4.22152 19.7783C2.30237 17.8591 1.16049 15.2981 1.01547 12.5879C0.870492 9.87755 1.73281 7.20872 3.43637 5.0957C3.50737 5.00764 3.58164 4.92251 3.65512 4.83691C2.9386 4.10898 2.17904 3.42123 1.3768 2.78125C0.945057 2.43684 0.87418 1.80772 1.21859 1.37598C1.56308 0.944606 2.19227 0.874447 2.62387 1.21875C3.49229 1.91155 4.31446 2.65596 5.08969 3.44434C6.56844 2.25005 8.34132 1.44927 10.244 1.1416C12.6684 0.749562 15.1452 1.18293 17.286 2.35645C18.4998 1.41248 20.1142 1.00002 21.9998 1ZM4.99301 6.35156C3.59942 8.08025 2.89403 10.2632 3.01254 12.4805C3.13115 14.698 4.06534 16.794 5.63558 18.3643C7.06866 19.7973 8.93976 20.6975 10.9412 20.9346C10.6984 17.6004 9.80756 14.3421 8.30941 11.3457C7.40864 9.54415 6.29964 7.86135 5.01156 6.32812C5.00536 6.33577 4.99919 6.3439 4.99301 6.35156ZM20.0887 8.05957C19.1115 8.62412 17.9339 8.91709 16.6034 8.9834C14.56 12.7685 13.9294 15.2828 13.1532 20.9248C14.7894 20.7133 16.3475 20.0555 17.6483 19.0068C19.3771 17.613 20.5301 15.6288 20.8846 13.4365C21.1821 11.5965 20.8975 9.71977 20.0887 8.05957ZM15.9393 3.91016C14.2794 3.10183 12.4029 2.81781 10.5633 3.11523C9.04787 3.36029 7.63144 3.9864 6.44125 4.9209C7.8735 6.60608 9.10366 8.46154 10.0985 10.4512C10.9108 12.0759 11.5557 13.7727 12.0321 15.5146C12.6462 12.6869 13.4692 10.5341 15.0037 7.73828C15.0344 6.26716 15.3267 4.97034 15.9393 3.91016ZM20.9412 3.05762C19.6795 3.2023 18.7997 3.61422 18.2069 4.20703C17.6141 4.79986 17.2021 5.6796 17.0575 6.94141C18.3198 6.79685 19.1998 6.38591 19.7928 5.79297C20.3858 5.20001 20.7967 4.31992 20.9412 3.05762Z" fill="#ADADAD"/>
</svg>
